<svg id="Слой_1" data-name="Слой 1" xmlns="http://www.w3.org/2000/svg" viewBox="0 0 865.89 198.74"><defs><style>.cls-1{fill:#ec393c;}</style></defs><path d="M270.89,628h-68l-32.13-49H153.44v49H89.72V529.34h86.94q13.23,0,19.58-6.13t6.34-16.71q0-10.59-6.34-16.72t-19.58-6.13H89.72V433h91a115.31,115.31,0,0,1,35.64,5.16,77.86,77.86,0,0,1,27.14,14.76A65.54,65.54,0,0,1,260.77,476q6.08,13.51,6.07,30.51,0,21.16-9.31,36.77a65.06,65.06,0,0,1-26.33,24.51Z" transform="translate(-89.72 -429.5)"/><polygon class="cls-1" points="277.97 102.61 251.58 59.66 237.23 36.3 210.84 79.25 225.19 102.61 211.71 124.56 238.09 167.5 251.58 145.56 277.97 102.61"/><polygon class="cls-1" points="351.05 101.52 324.66 58.57 290.91 3.65 257.29 3.65 247.71 19.24 298.27 101.52 247.91 183.48 257.29 198.74 291.31 198.74 324.66 144.47 351.05 101.52"/><polygon class="cls-1" points="420.65 101.52 394.26 58.57 360.51 3.65 307.73 3.65 367.87 101.52 308.13 198.74 360.91 198.74 394.26 144.47 420.65 101.52"/><path d="M645.3,628a111.6,111.6,0,0,1-40.87-7.32A96.94,96.94,0,0,1,572,600.2a94,94,0,0,1-21.43-31.32,107.8,107.8,0,0,1,0-80.27A94.24,94.24,0,0,1,572,457.29a96.91,96.91,0,0,1,32.46-20.47,111.6,111.6,0,0,1,40.87-7.32q27.06,0,48,9.76a89.54,89.54,0,0,1,34.56,28.2l-39.17,36.07a65,65,0,0,0-17.87-16.41,42.65,42.65,0,0,0-22.34-5.83q-19.46,0-31.28,12.75t-11.82,34.71q0,22,11.82,34.71t31.28,12.74a42.56,42.56,0,0,0,22.34-5.83A64.85,64.85,0,0,0,688.66,554L727.83,590a89.47,89.47,0,0,1-34.56,28.21Q672.38,628,645.3,628Z" transform="translate(-89.72 -429.5)"/><polygon points="730.62 3.85 730.62 3.46 667.98 3.46 667.98 74.81 730.62 3.85"/><polygon points="786.51 89.26 862.11 3.46 792.72 3.46 792.68 3.5 793.11 3.5 733.06 71.43 730.62 74.21 730.62 74.19 667.98 145.06 667.98 198.46 730.62 198.46 730.62 150.26 744.93 133.83 792.18 198.46 865.89 198.46 786.51 89.26"/></svg>