<svg id="Слой_1" data-name="Слой 1" xmlns="http://www.w3.org/2000/svg" viewBox="0 0 869.82 200.5"><defs><style>.cls-1{fill:#ec393c;}</style></defs><path d="M645.3,628a111.6,111.6,0,0,1-40.87-7.32A96.94,96.94,0,0,1,572,600.2a94,94,0,0,1-21.43-31.32,107.8,107.8,0,0,1,0-80.27A94.24,94.24,0,0,1,572,457.29a96.91,96.91,0,0,1,32.46-20.47,111.6,111.6,0,0,1,40.87-7.32q27.06,0,48,9.76a89.54,89.54,0,0,1,34.56,28.2l-39.17,36.07a65,65,0,0,0-17.87-16.41,42.65,42.65,0,0,0-22.34-5.83q-19.46,0-31.28,12.75t-11.82,34.71q0,22,11.82,34.71t31.28,12.74a42.56,42.56,0,0,0,22.34-5.83A64.85,64.85,0,0,0,688.66,554L727.83,590a89.47,89.47,0,0,1-34.56,28.21Q672.38,628,645.3,628Z" transform="translate(-85.79 -429.5)"/><polygon class="cls-1" points="281.9 102.61 255.51 59.66 241.16 36.3 214.77 79.25 229.12 102.61 215.64 124.56 242.03 167.5 255.51 145.56 281.9 102.61"/><polygon class="cls-1" points="354.98 101.52 328.59 58.57 294.84 3.65 261.22 3.65 251.64 19.24 302.2 101.52 251.84 183.48 261.22 198.74 295.24 198.74 328.59 144.47 354.98 101.52"/><polygon class="cls-1" points="424.58 101.52 398.19 58.57 364.44 3.65 311.66 3.65 371.8 101.52 312.06 198.74 364.84 198.74 398.19 144.47 424.58 101.52"/><path d="M188.3,630a111.6,111.6,0,0,1-40.87-7.32A96.94,96.94,0,0,1,115,602.2a94,94,0,0,1-21.43-31.32,107.8,107.8,0,0,1,0-80.27A94.24,94.24,0,0,1,115,459.29a96.91,96.91,0,0,1,32.46-20.47,111.6,111.6,0,0,1,40.87-7.32q27.06,0,48,9.76a89.54,89.54,0,0,1,34.56,28.2l-39.17,36.07a65,65,0,0,0-17.87-16.41,42.65,42.65,0,0,0-22.34-5.83q-19.45,0-31.28,12.75t-11.82,34.71q0,22,11.82,34.71t31.28,12.74a42.56,42.56,0,0,0,22.34-5.83A64.85,64.85,0,0,0,231.66,556L270.83,592a89.47,89.47,0,0,1-34.56,28.21Q215.38,630,188.3,630Z" transform="translate(-85.79 -429.5)"/><polygon points="734.55 3.85 734.55 3.46 671.91 3.46 671.91 74.81 734.55 3.85"/><polygon points="790.45 89.26 866.04 3.46 796.65 3.46 796.61 3.5 797.04 3.5 737 71.43 734.55 74.21 734.55 74.19 671.91 145.06 671.91 198.46 734.55 198.46 734.55 150.26 748.87 133.83 796.12 198.46 869.83 198.46 790.45 89.26"/></svg>